<?xml version="1.0" encoding="utf-8"?>
<!-- Generator: Adobe Illustrator 21.1.0, SVG Export Plug-In . SVG Version: 6.00 Build 0)  -->
<svg version="1.1" id="Layer_1" xmlns="http://www.w3.org/2000/svg" xmlns:xlink="http://www.w3.org/1999/xlink" x="0px" y="0px"
	 viewBox="0 0 170 50" style="enable-background:new 0 0 170 50;" xml:space="preserve">
<style type="text/css">
	.st0{fill:#4E4E4E;}
	.st1{fill:#ED2079;}
	.st2{fill:#FBB03B;}
	.st3{fill:#1072BA;}
	.st4{fill:#8DC641;}
</style>
<g>
	<g>
		<path class="st0" d="M72.9,48h-1.3l-0.6-1.3h-3.2L67.3,48h-1.3l2.8-6.6h1.4L72.9,48z M68.2,45.7h2.6l-1.3-3.2L68.2,45.7z"/>
		<path class="st0" d="M77.4,43.1V48h-1.1v-6.6h1.2l3.6,4.8v-4.8h1.1V48H81L77.4,43.1z"/>
		<path class="st0" d="M92.3,48h-1.3l-0.6-1.3h-3.2L86.7,48h-1.3l2.8-6.6h1.4L92.3,48z M87.6,45.7h2.6l-1.3-3.2L87.6,45.7z"/>
		<path class="st0" d="M95.6,41.4h1.1V47h3.1v1h-4.2V41.4z"/>
		<path class="st0" d="M103.6,41.4h1.1V48h-1.1V41.4z M103.7,40.7l1.7-1.7h1.1l-2,1.7H103.7z"/>
		<path class="st0" d="M110.2,42.4h-2v-1h5.1v1h-2V48h-1.1V42.4z"/>
		<path class="st0" d="M116.9,41.4h1.1V48h-1.1V41.4z"/>
		<path class="st0" d="M125.3,41.3c1.2,0,2.1,0.6,2.7,1.5l-0.9,0.5c-0.4-0.6-1-0.9-1.8-0.9c-1.4,0-2.4,1-2.4,2.4
			c0,1.4,1,2.4,2.4,2.4c0.7,0,1.4-0.4,1.8-0.9l0.9,0.5c-0.6,0.8-1.4,1.5-2.7,1.5c-2,0-3.5-1.4-3.5-3.4
			C121.8,42.7,123.3,41.3,125.3,41.3z"/>
		<path class="st0" d="M137.6,48h-1.3l-0.6-1.3h-3.2L132,48h-1.3l2.8-6.6h1.4L137.6,48z M132.9,45.7h2.6l-1.3-3.2L132.9,45.7z"/>
	</g>
	<g>
		<polygon class="st0" points="46.4,27.6 50.5,27.6 50.5,17 60.7,17 60.7,13.6 50.5,13.6 50.5,7.1 61.7,7.1 61.7,3.7 46.4,3.7 		"/>
		<rect x="64.1" y="9.5" class="st0" width="3.9" height="18.2"/>
		<rect x="64.1" y="3.3" class="st0" width="3.9" height="4.4"/>
		<path class="st0" d="M80.5,9.1c-2.1,0-3.6,0.4-4.6,1.1V9.5H72v18.1h3.9V14.7c0-0.9,0.2-1.5,0.6-1.8c0.3-0.2,1.1-0.5,3.1-0.5
			c0.7,0,1.2,0.1,1.6,0.2c0.4,0.1,0.6,0.3,0.8,0.5c0.2,0.2,0.3,0.5,0.3,0.7c0.1,0.2,0.1,0.5,0.1,0.9v12.9h3.9V14.6
			c0-1.8-0.4-3.1-1.3-4.1C84.2,9.6,82.7,9.1,80.5,9.1"/>
		<path class="st0" d="M97.5,16.6h-1.8c-2.3,0-2.3-0.9-2.3-1.2v-1.4c0-0.8,0.3-1.1,0.6-1.2c0.3-0.2,1.1-0.4,2.8-0.4
			c1.3,0,2.9,0.2,4.7,0.5l0.6,0.1V9.5l-0.5,0c-2.7-0.2-4.2-0.3-4.7-0.3c-4.9,0-7.4,1.5-7.4,4.6v1.6c0,1.4,0.5,2.6,1.4,3.4
			c0.9,0.8,2.3,1.2,4,1.2h1.8c1.1,0,1.6,0.2,1.9,0.4c0.1,0.1,0.4,0.3,0.4,1.1v1.7c0,0.8-0.3,1.1-0.6,1.2c-0.6,0.2-1.5,0.4-2.7,0.4
			c-1,0-2.8-0.2-5.3-0.7L89.8,24v3.5l0.4,0.1c1.9,0.3,3.7,0.4,5.4,0.4c2.3,0,4-0.4,5.3-1.1c1.3-0.8,2-2.2,2-4.3v-1.5
			C102.9,19,101.9,16.6,97.5,16.6"/>
		<path class="st0" d="M112.9,24.9L112.9,24.9c-0.8,0-1.4,0-1.8-0.1c-0.4,0-0.7-0.2-1.1-0.3c-0.3-0.1-0.5-0.4-0.6-0.7
			c-0.1-0.4-0.2-0.9-0.2-1.6v-6.9c0-1.8,0.4-2.3,0.6-2.5c0.3-0.2,1.1-0.5,3-0.5c1.9,0,2.7,0.3,3,0.5c0.2,0.2,0.6,0.7,0.6,2.5v6.9
			c0,0.7-0.1,1.2-0.2,1.6c-0.1,0.3-0.3,0.5-0.6,0.7c-0.4,0.2-0.7,0.3-1.1,0.3C114.3,24.8,113.7,24.9,112.9,24.9 M119.2,10.8
			c-0.4-0.5-1-0.9-1.8-1.1c-0.7-0.2-1.4-0.4-2-0.4c-0.6-0.1-1.4-0.1-2.5-0.1c-1,0-1.9,0-2.5,0.1c-0.6,0-1.3,0.2-2,0.4
			c-0.8,0.3-1.4,0.6-1.8,1.1c-0.4,0.5-0.7,1.1-1,2c-0.3,0.8-0.4,1.8-0.4,3v5.9c0,1.4,0.2,2.5,0.5,3.4c0.4,0.9,1,1.6,1.8,2
			c0.8,0.4,1.5,0.6,2.3,0.7c0.7,0.1,1.8,0.1,3.1,0.1c1,0,1.8,0,2.5-0.1c0.6-0.1,1.3-0.2,2-0.4c0.8-0.2,1.4-0.6,1.8-1.1
			c0.4-0.5,0.7-1.1,1-1.9c0.3-0.8,0.4-1.7,0.4-2.8v-5.9c0-1.2-0.1-2.2-0.4-3C119.9,11.9,119.6,11.3,119.2,10.8"/>
		<path class="st0" d="M131,24.7c-1.9,0-2.7-0.3-3-0.5c-0.4-0.3-0.6-1-0.6-2.1v-7c0-1.6,0.3-2.1,0.5-2.3c0.2-0.2,0.9-0.5,2.8-0.5
			c1.5,0,3,0.2,4.6,0.7l0.7,0.2V9.8l-0.4-0.1c-1.5-0.4-3-0.5-4.5-0.5c-0.8,0-1.5,0-2,0.1c-0.5,0-1.1,0.1-1.7,0.2
			c-0.7,0.1-1.3,0.3-1.7,0.6c-0.4,0.3-0.8,0.7-1.2,1.1c-0.4,0.5-0.7,1.1-0.9,1.9c-0.2,0.7-0.3,1.6-0.3,2.6v6.3
			c0,1.1,0.1,2.1,0.4,2.8c0.3,0.8,0.6,1.4,1,1.8c0.4,0.4,1,0.8,1.8,1c0.7,0.2,1.3,0.3,1.9,0.4c0.5,0,1.3,0.1,2.2,0.1
			c1.9,0,3.6-0.2,5.1-0.5l0.4-0.1v-3.5l-0.7,0.2C134,24.5,132.5,24.7,131,24.7"/>
		<rect x="138.8" y="3.3" class="st0" width="3.9" height="4.4"/>
		<rect x="138.8" y="9.5" class="st0" width="3.9" height="18.2"/>
		<path class="st0" d="M153.9,24.8L153.9,24.8c-0.4,0-0.8,0-1.4,0h-0.6c-0.9,0-1.6-0.2-1.8-0.5c-0.2-0.3-0.4-0.9-0.4-2.2
			c0-1.6,0.3-2.1,0.4-2.2c0.1-0.1,0.5-0.4,2.1-0.4h3.9v4.1c0,0.3-0.1,0.5-0.2,0.6c-0.2,0.2-0.4,0.3-0.8,0.4
			C154.6,24.7,154.2,24.8,153.9,24.8 M153.3,9.1c-1.7,0-3.7,0.1-5.8,0.3L147,9.5v3.4l0.6-0.1c1.9-0.3,3.7-0.4,5.2-0.4
			c1.7,0,2.4,0.2,2.7,0.4c0.4,0.2,0.5,0.7,0.5,1.5v2.2h-4.1c-2.4,0-3.9,0.4-4.8,1.2c-0.9,0.8-1.3,2.2-1.3,4.3c0,2.4,0.5,3.9,1.4,4.8
			c0.9,0.8,2.5,1.2,4.8,1.2c1.9,0,3.3-0.3,4.1-0.9v0.5h3.8V15c0-2.4-0.4-3.9-1.3-4.7C157.8,9.5,156,9.1,153.3,9.1"/>
		<rect x="163.9" y="1.9" class="st0" width="3.9" height="25.8"/>
	</g>
	
		<rect x="23.5" y="13.1" transform="matrix(-1.836970e-16 1 -1 -1.836970e-16 51.4576 -19.6078)" class="st1" width="24.1" height="5.7"/>
	
		<rect x="14.9" y="15.1" transform="matrix(-1.836970e-16 1 -1 -1.836970e-16 42.8608 -6.881)" class="st2" width="20" height="5.7"/>
	<rect x="7.9" y="18.1" transform="matrix(-1.836970e-16 1 -1 -1.836970e-16 35.9099 6.07)" class="st3" width="14" height="5.7"/>
	<rect x="1" y="21.1" transform="matrix(-1.836970e-16 1 -1 -1.836970e-16 28.9589 19.0209)" class="st4" width="8" height="5.7"/>
</g>
</svg>
